HIERARCHY
ROOT Hips
{
	OFFSET 0.000000 0.000000 0.000000
	CHANNELS 6 Xposition Yposition Zposition Xrotation Yrotation Zrotation
	JOINT LeftUpLeg_virtual
	{
		OFFSET 0.000000 0.000000 0.000000
		CHANNELS 3 Xrotation Yrotation Zrotation
		JOINT LeftUpLeg
		{
			OFFSET 11.394100 -6.187798 -0.413800
			CHANNELS 3 Xrotation Yrotation Zrotation
			JOINT LeftLeg
			{
				OFFSET 0.430247 -32.302673 3.732800
				CHANNELS 3 Xrotation Yrotation Zrotation
				JOINT LeftFoot
				{
					OFFSET -0.430247 -48.264931 -6.423300
					CHANNELS 3 Xrotation Yrotation Zrotation
					JOINT LeftToeBase
					{
						OFFSET 4.230900 -16.068199 23.438400
						CHANNELS 3 Xrotation Yrotation Zrotation
						JOINT LeftToe_End
						{
							OFFSET 4.510700 0.695400 19.974600
							CHANNELS 3 Xrotation Yrotation Zrotation
							End Site
							{
								OFFSET 0 0 0
							}
						}
					}
				}
			}
		}
	}
	JOINT RightUpLeg_virtual
	{
		OFFSET 0.000000 0.000000 0.000000
		CHANNELS 3 Xrotation Yrotation Zrotation
		JOINT RightUpLeg
		{
			OFFSET -11.333700 -6.187798 -0.413800
			CHANNELS 3 Xrotation Yrotation Zrotation
			JOINT RightLeg
			{
				OFFSET -0.430392 -32.302628 3.733000
				CHANNELS 3 Xrotation Yrotation Zrotation
				JOINT RightFoot
				{
					OFFSET 0.430392 -48.264973 -6.423500
					CHANNELS 3 Xrotation Yrotation Zrotation
					JOINT RightToeBase
					{
						OFFSET -4.230900 -16.068199 23.438400
						CHANNELS 3 Xrotation Yrotation Zrotation
						JOINT RightToe_End
						{
							OFFSET -4.510700 0.695400 19.974600
							CHANNELS 3 Xrotation Yrotation Zrotation
							End Site
							{
								OFFSET 0 0 0
							}
						}
					}
				}
			}
		}
	}
	JOINT Spine_virtual
	{
		OFFSET 0.000000 0.000000 0.000000
		CHANNELS 3 Xrotation Yrotation Zrotation
		JOINT Spine
		{
			OFFSET -0.002400 12.777504 0.315300
			CHANNELS 3 Xrotation Yrotation Zrotation
			JOINT Spine1
			{
				OFFSET -0.002067 5.816869 0.032633
				CHANNELS 3 Xrotation Yrotation Zrotation
				JOINT Spine1_split
				{
					OFFSET -0.002067 5.816869 0.032633
					CHANNELS 3 Xrotation Yrotation Zrotation
					JOINT Spine2
					{
						OFFSET -0.002067 5.816869 0.032633
						CHANNELS 3 Xrotation Yrotation Zrotation
						JOINT Neck_virtual
						{
							OFFSET 0.000000 0.000000 0.000000
							CHANNELS 3 Xrotation Yrotation Zrotation
							JOINT Neck
							{
								OFFSET -0.003700 21.199493 -0.826900
								CHANNELS 3 Xrotation Yrotation Zrotation
								JOINT Head
								{
									OFFSET 0.000000 20.442200 4.834800
									CHANNELS 3 Xrotation Yrotation Zrotation
									JOINT HeadTop_End
									{
										OFFSET 0.000000 34.668396 4.968400
										CHANNELS 3 Xrotation Yrotation Zrotation
										End Site
										{
											OFFSET 0 0 0
										}
									}
								}
							}
						}
						JOINT LeftShoulder_virtual
						{
							OFFSET 0.000000 0.000000 0.000000
							CHANNELS 3 Xrotation Yrotation Zrotation
							JOINT LeftShoulder
							{
								OFFSET 3.288150 8.794197 -1.372250
								CHANNELS 3 Xrotation Yrotation Zrotation
								JOINT LeftShoulder_split
								{
									OFFSET 3.288150 8.794197 -1.372250
									CHANNELS 3 Xrotation Yrotation Zrotation
									JOINT LeftArm
									{
										OFFSET 11.953299 -2.279007 -0.146200
										CHANNELS 3 Xrotation Yrotation Zrotation
										JOINT LeftForeArm
										{
											OFFSET 18.448900 0.000000 0.000000
											CHANNELS 3 Xrotation Yrotation Zrotation
											JOINT LeftHand
											{
												OFFSET 29.527798 0.000000 0.000000
												CHANNELS 3 Xrotation Yrotation Zrotation
												End Site
												{
													OFFSET 0 0 0
												}
											}
										}
									}
								}
							}
						}
						JOINT RightShoulder_virtual
						{
							OFFSET 0.000000 0.000000 0.000000
							CHANNELS 3 Xrotation Yrotation Zrotation
							JOINT RightShoulder
							{
								OFFSET -3.249400 8.794197 -1.372250
								CHANNELS 3 Xrotation Yrotation Zrotation
								JOINT RightShoulder_split
								{
									OFFSET -3.249400 8.794197 -1.372250
									CHANNELS 3 Xrotation Yrotation Zrotation
									JOINT RightArm
									{
										OFFSET -11.953299 -2.279007 -0.146200
										CHANNELS 3 Xrotation Yrotation Zrotation
										JOINT RightForeArm
										{
											OFFSET -18.448900 0.000000 0.000000
											CHANNELS 3 Xrotation Yrotation Zrotation
											JOINT RightHand
											{
												OFFSET -29.527802 0.000000 0.000000
												CHANNELS 3 Xrotation Yrotation Zrotation
												End Site
												{
													OFFSET 0 0 0
												}
											}
										}
									}
								}
							}
						}
					}
				}
			}
		}
	}
}
MOTION
Frames: 4
Frame Time: 0.03333333
-15.256659 84.206024 -2.162437 0.000000 0.000000 0.000000 -5.045713 -41.317915 2.585544 -30.594159 5.988740 22.624583 50.094325 -7.576336 8.619256 -18.800449 -11.919230 -27.287362 -5.271429 0.000010 0.000001 0.000000 0.000000 0.000000 -5.045713 -41.317915 2.585544 -36.954424 -2.374680 -34.708648 58.391253 -8.751543 -9.243425 -9.487644 -6.713803 25.545377 -0.008004 -0.000021 -0.000003 0.000000 0.000000 0.000000 -5.045713 -41.317915 2.585544 9.648300 6.742384 -1.809316 2.662901 0.259921 -2.295165 0.000000 0.000000 0.000000 0.000000 0.000000 0.000000 2.669058 0.331682 -2.307773 2.011273 13.449577 3.300338 10.427967 19.026576 -1.130589 0.000000 0.000000 0.000000 2.669058 0.331682 -2.307773 2.384944 -0.558990 -14.184837 0.000000 0.000000 0.000000 -68.573740 -0.972353 -38.581983 -179.999800 -71.804297 -179.999800 0.000000 0.000000 0.000000 2.669058 0.331682 -2.307773 2.634942 12.163990 -12.194979 0.000000 0.000000 0.000000 -62.879357 19.380918 84.395784 -0.000250 85.889342 0.000260 0.000000 0.000000 0.000000 
-16.797691 84.707260 -2.820747 0.000000 0.000000 0.000000 -6.209652 -41.748811 2.048760 -29.705893 5.740488 22.653536 49.943822 -7.590043 9.730187 -15.360587 -11.606238 -28.243070 -7.665782 0.000018 0.000002 0.000000 0.000000 0.000000 -6.209652 -41.748811 2.048760 -36.346811 -3.383867 -35.085350 58.699725 -10.061767 -8.671186 -10.995443 -4.328148 24.606059 0.008977 0.000026 0.018090 0.000000 0.000000 0.000000 -6.209652 -41.748811 2.048760 9.615103 6.451338 -1.383817 2.766067 -0.356991 -2.318342 0.000000 0.000000 0.000000 0.000000 0.000000 0.000000 2.765116 -0.254301 -2.356229 2.319645 13.599722 3.258858 11.523875 19.676544 -2.051256 0.000000 0.000000 0.000000 2.765116 -0.254301 -2.356229 2.217712 0.696461 -13.443604 0.000000 0.000000 0.000000 -68.029729 -0.403275 -40.075718 179.999786 -71.283249 179.999786 0.000000 0.000000 0.000000 2.765116 -0.254301 -2.356229 2.599455 11.718729 -12.158733 0.000000 0.000000 0.000000 -64.262928 18.736208 84.603156 0.003075 87.058151 -0.003068 0.000000 0.000000 0.000000 
-18.296272 85.599518 -3.445717 0.000000 0.000000 0.000000 -6.719482 -42.086318 1.963256 -30.181933 4.744951 22.485160 50.773512 -8.104524 10.253932 -9.579641 -10.422951 -28.202894 -10.814799 0.014976 -0.296825 0.000000 0.000000 0.000000 -6.719482 -42.086318 1.963256 -35.475507 -4.645592 -34.953732 58.041370 -9.939467 -8.181836 -11.987949 -3.837241 23.401862 0.001136 0.000028 0.007930 0.000000 0.000000 0.000000 -6.719482 -42.086318 1.963256 9.581035 6.187478 -1.233462 2.771246 -0.888555 -2.411324 0.000000 0.000000 0.000000 0.000000 0.000000 0.000000 2.769533 -0.770331 -2.469700 2.323234 13.688405 3.351658 12.263282 20.206066 -2.684244 0.000000 0.000000 0.000000 2.769533 -0.770331 -2.469700 2.040253 1.891024 -12.727009 0.000000 0.000000 0.000000 -66.041891 -0.227477 -42.512723 179.999923 -71.385312 179.999923 0.000000 0.000000 0.000000 2.769533 -0.770331 -2.469700 2.522557 10.738721 -12.141172 0.000000 0.000000 0.000000 -65.351257 18.105132 85.470023 -0.016811 88.672781 0.016877 0.000000 0.000000 0.000000 
-19.656055 86.632950 -3.901352 0.000000 0.000000 0.000000 -6.641739 -42.460308 2.175474 -31.766711 3.607805 21.858502 52.940718 -7.273348 10.331252 -5.267370 -9.850473 -25.280968 -12.422394 0.311811 -3.056001 0.000000 0.000000 0.000000 -6.641739 -42.460308 2.175474 -34.492869 -5.834910 -34.304331 56.751567 -9.828335 -7.887415 -12.630090 -3.799043 22.328484 -0.007590 -0.000018 0.000002 0.000000 0.000000 0.000000 -6.641739 -42.460308 2.175474 9.503984 6.047762 -1.187718 2.640296 -1.180719 -2.495266 0.000000 0.000000 0.000000 0.000000 0.000000 0.000000 2.639777 -1.060852 -2.565578 2.087519 13.713252 3.536876 12.260525 20.617665 -3.062890 0.000000 0.000000 0.000000 2.639777 -1.060852 -2.565578 1.997597 2.570329 -12.655318 0.000000 0.000000 0.000000 -62.993851 -0.765873 -44.829175 -179.999786 -72.099573 -179.999800 0.000000 0.000000 0.000000 2.639777 -1.060852 -2.565578 2.424930 9.529671 -12.215772 0.000000 0.000000 0.000000 -65.171855 17.733939 86.301947 179.998980 89.236640 -179.999308 0.000000 0.000000 0.000000 
